<svg height="32" version="1.1" viewBox="0 0 33 32" width="33" xmlns="http://www.w3.org/2000/svg">
    <defs>
        <clipPath id="clip_0">
            <path clip-rule="evenodd"
                d="M10.83246 21.664946C12.974918 21.664946 15.069263 21.029633 16.850653 19.839346 18.63204 18.649062 20.020466 16.957262 20.84035 14.977888 21.660233 12.998515 21.87475 10.820469 21.456778 8.719177 21.038805 6.617887 20.007113 4.687727 18.492167 3.172779 16.977219 1.657833 15.047059 .626141 12.945767 .208168 10.844477-.209806 8.66643 .004713 6.687057 .824596 4.707684 1.64448 3.015884 3.032904 1.825598 4.814293 .635312 6.595682 0 8.690027 0 10.832485 -0 11.162515 .014804 11.490376 .044413 11.816072 .073142 12.133965 .226977 12.427423 .472075 12.631891 .717173 12.83636 1.033458 12.935089 1.351349 12.90636 1.669241 12.87763 1.9627 12.723796 2.167168 12.478698 2.371637 12.2336 2.470366 11.917315 2.441637 11.599423 2.418527 11.345222 2.406973 11.089214 2.406973 10.831402 2.40436 9.25473 2.846659 7.709313 3.683037 6.372761 4.363301 5.28434 5.281889 4.364641 6.369486 3.683062 7.711004 2.8459 9.261034 2.403156 10.842332 2.40546 12.42363 2.407764 13.972364 2.855022 15.311437 3.696091 16.650509 4.537159 17.725863 5.738085 18.414538 7.161545 19.10321 8.585004 19.377406 10.173536 19.205761 11.745493 19.034117 13.31745 18.423565 14.809376 17.443924 16.05067 16.464283 17.291964 15.155096 18.23252 13.666068 18.764784 12.177041 19.297047 10.568279 19.399535 9.023746 19.060526 7.479214 18.721518 6.061257 17.954697 4.932019 16.84775H6.616467C6.924489 16.849305 7.221385 16.732693 7.446015 16.521929 7.670646 16.311163 7.805912 16.02229 7.823959 15.714792 7.842006 15.407293 7.741461 15.10458 7.543027 14.868985 7.344594 14.63339 7.063379 14.482849 6.757288 14.44836L6.616467 14.440779H1.801438C1.507102 14.441702 1.22331 14.550457 1.003738 14.746474 .784167 14.942492 .644042 15.212179 .609867 15.504525L.602285 15.645348V20.457127C.60073 20.76515 .717342 21.062045 .928107 21.286675 1.138872 21.511305 1.427745 21.64657 1.735244 21.664618 2.042742 21.682665 2.345455 21.58212 2.58105 21.383687 2.816645 21.185254 2.967186 20.90404 3.001675 20.597949L3.009257 20.457127V18.320965C4.019333 19.378447 5.233435 20.220032 6.578112 20.794806 7.922789 21.369582 9.370091 21.665596 10.83246 21.664946ZM9.930116 16.851C10.148295 16.850956 10.359087 16.771956 10.523555 16.628594 10.688023 16.485232 10.795054 16.287196 10.824877 16.071064L10.83246 15.947573V10.832485H13.540575C13.770276 10.833966 13.991895 10.747788 14.160254 10.591519 14.328613 10.43525 14.431039 10.220654 14.446649 9.99148 14.462258 9.762304 14.38988 9.535803 14.244265 9.358149 14.09865 9.180493 13.890762 9.06506 13.662982 9.035379L13.540575 9.026714H9.930116C9.711936 9.026759 9.501144 9.105759 9.336677 9.249121 9.172209 9.392483 9.065178 9.59052 9.035355 9.806652L9.02669 9.929059V15.947573C9.02669 16.187176 9.121872 16.416968 9.291297 16.586392 9.460723 16.755818 9.690512 16.851 9.930116 16.851Z"
                transform="matrix(1,0,0,-1,0,21.666687)" />
        </clipPath>
    </defs>
    <path
        d="M10.83246 21.890715C12.974918 21.890715 15.069263 21.255402 16.850653 20.065115 18.63204 18.87483 20.020466 17.183032 20.84035 15.203657 21.660233 13.224284 21.87475 11.046238 21.456778 8.944946 21.038805 6.843656 20.007113 4.913496 18.492167 3.398548 16.977219 1.883602 15.047059 .85191 12.945767 .433937 10.844477 .015963 8.66643 .230482 6.687057 1.050365 4.707684 1.870249 3.015884 3.258673 1.825598 5.040062 .635312 6.821451 0 8.915796 0 11.058254 -0 11.388284 .014804 11.716146 .044413 12.041842 .073142 12.359734 .226977 12.653193 .472075 12.85766 .717173 13.062129 1.033458 13.160858 1.351349 13.132129 1.669241 13.103399 1.9627 12.949565 2.167168 12.704467 2.371637 12.459369 2.470366 12.143085 2.441637 11.825192 2.418527 11.570991 2.406973 11.314983 2.406973 11.057171 2.40436 9.480499 2.846659 7.935082 3.683037 6.59853 4.363301 5.510109 5.281889 4.59041 6.369486 3.908831 7.711004 3.071669 9.261034 2.628925 10.842332 2.631229 12.42363 2.633533 13.972364 3.080791 15.311437 3.92186 16.650509 4.762928 17.725863 5.963854 18.414538 7.387314 19.10321 8.810773 19.377406 10.399305 19.205761 11.971262 19.034117 13.543219 18.423565 15.035145 17.443924 16.27644 16.464283 17.517733 15.155096 18.458289 13.666068 18.990553 12.177041 19.522816 10.568279 19.625304 9.023746 19.286295 7.479214 18.947287 6.061257 18.180466 4.932019 17.073519H6.616467C6.924489 17.075074 7.221385 16.958462 7.446015 16.747698 7.670646 16.536932 7.805912 16.248059 7.823959 15.940561 7.842006 15.633062 7.741461 15.330349 7.543027 15.094754 7.344594 14.859159 7.063379 14.708618 6.757288 14.674129L6.616467 14.666548H1.801438C1.507102 14.667471 1.22331 14.776226 1.003738 14.972243 .784167 15.168261 .644042 15.437948 .609867 15.730294L.602285 15.871117V20.682896C.60073 20.99092 .717342 21.287814 .928107 21.512444 1.138872 21.737074 1.427745 21.87234 1.735244 21.890387 2.042742 21.908434 2.345455 21.80789 2.58105 21.609456 2.816645 21.411023 2.967186 21.129809 3.001675 20.823718L3.009257 20.682896V18.546734C4.019333 19.604216 5.233435 20.4458 6.578112 21.020575 7.922789 21.59535 9.370091 21.891366 10.83246 21.890715ZM9.930116 17.076769C10.148295 17.076725 10.359087 16.997725 10.523555 16.854363 10.688023 16.711 10.795054 16.512965 10.824877 16.296833L10.83246 16.173342V11.058254H13.540575C13.770276 11.059735 13.991895 10.973557 14.160254 10.817288 14.328613 10.661019 14.431039 10.446424 14.446649 10.217249 14.462258 9.988073 14.38988 9.761572 14.244265 9.583918 14.09865 9.406262 13.890762 9.290829 13.662982 9.261148L13.540575 9.252483H9.930116C9.711936 9.252528 9.501144 9.331528 9.336677 9.47489 9.172209 9.618252 9.065178 9.816289 9.035355 10.032421L9.02669 10.154828V16.173342C9.02669 16.412945 9.121872 16.642737 9.291297 16.81216 9.460723 16.981587 9.690512 17.076769 9.930116 17.076769Z"
        fill="#3f4047" transform="matrix(1,0,0,-1,0,21.892457)" />
    <g clip-path="url(#clip_0)">
        <path
            d="M10.83246 21.890715 10.832326 21.590714H10.83246V21.890715ZM0 11.058254H.3 0ZM.044413 12.041842 .343181 12.014681 .343195 12.014839 .044413 12.041842ZM2.441637 11.825192 2.740405 11.798032 2.740419 11.79819 2.441637 11.825192ZM2.406973 11.057171 2.706973 11.056674V11.057171H2.406973ZM3.683037 6.59853 3.937436 6.75753 3.937348 6.757671 3.683037 6.59853ZM6.369486 3.908831 6.210179 3.654623 6.210662 3.654322 6.369486 3.908831ZM4.932019 17.073519 4.722012 17.287756 4.19742 16.77352H4.932019V17.073519ZM6.616467 17.073519V16.773516L6.61798 16.773524 6.616467 17.073519ZM6.757288 14.674129 6.773419 14.374563 6.78217 14.375034 6.790878 14.376017 6.757288 14.674129ZM6.616467 14.666548V14.366547H6.624537L6.632596 14.366982 6.616467 14.666548ZM1.801438 14.666548 1.800497 14.366547H1.801438V14.666548ZM.609867 15.730294 .310301 15.714164 .310806 15.704788 .311896 15.695462 .609867 15.730294ZM.602285 15.871117H.302285V15.863045L.302719 15.854986 .602285 15.871117ZM.602285 20.682896H.902289L.902281 20.68441 .602285 20.682896ZM3.001675 20.823718 3.301241 20.839848 3.300769 20.848599 3.299788 20.857308 3.001675 20.823718ZM3.009257 20.682896H3.309257V20.690966L3.308823 20.699027 3.009257 20.682896ZM3.009257 18.546734H2.709257V17.79832L3.226196 18.33952 3.009257 18.546734ZM9.930116 17.076769 9.930178 17.37677H9.930116V17.076769ZM10.824877 16.296833 11.124313 16.31522 11.123616 16.326573 11.122062 16.33784 10.824877 16.296833ZM10.83246 16.173342H11.13246V16.182545L11.131896 16.191729 10.83246 16.173342ZM10.83246 11.058254H10.53246V10.758254H10.83246V11.058254ZM13.540575 11.058254V10.758248L13.542508 10.758261 13.540575 11.058254ZM13.662982 9.261148 13.684166 8.961898 13.692981 8.962522 13.701744 8.963664 13.662982 9.261148ZM13.540575 9.252483V8.952483H13.55118L13.561759 8.953233 13.540575 9.252483ZM9.930116 9.252483 9.930054 8.952483H9.930116V9.252483ZM9.035355 10.032421 8.736103 10.011236 8.736808 10.00129 8.738171 9.991414 9.035355 10.032421ZM9.02669 10.154828H8.726689V10.144222L8.727438 10.133643 9.02669 10.154828ZM10.83246 21.590714C12.915584 21.590714 14.951927 20.972996 16.68398 19.815676L17.017323 20.314557C15.1866 21.537808 13.034252 22.190714 10.83246 22.190714V21.590714ZM16.68398 19.815676C18.416035 18.658354 19.766009 17.013409 20.563185 15.088853L21.117514 15.318462C20.274924 17.352654 18.848048 19.091307 17.017323 20.314557L16.68398 19.815676ZM20.563185 15.088853C21.360362 13.164297 21.56894 11.046571 21.162543 9.003473L21.751013 8.886419C22.180563 11.045905 21.960103 13.284271 21.117514 15.318462L20.563185 15.088853ZM21.162543 9.003473C20.756146 6.960377 19.753026 5.083672 18.280034 3.61068L18.704298 3.186417C20.2612 4.743319 21.321465 6.726933 21.751013 8.886419L21.162543 9.003473ZM18.280034 3.61068C16.807044 2.13769 14.930338 1.134569 12.88724 .728172L13.004294 .1397C15.16378 .569248 17.147397 1.629515 18.704298 3.186417L18.280034 3.61068ZM12.88724 .728172C10.844144 .321774 8.726417 .530352 6.801862 1.32753L6.572252 .773201C8.606442-.069387 10.84481-.289848 13.004294 .1397L12.88724 .728172ZM6.801862 1.32753C4.877306 2.124706 3.232361 3.47468 2.075039 5.206734L1.576158 4.87339C2.799408 3.042667 4.53806 1.615791 6.572252 .773201L6.801862 1.32753ZM2.075039 5.206734C.917718 6.938787 .3 8.975131 .3 11.058254H-.3C-.3 8.856462 .352907 6.704115 1.576158 4.87339L2.075039 5.206734ZM.3 11.058254C.3 11.379299 .314401 11.698097 .343181 12.014681L-.254355 12.069002C-.284792 11.734194-.3 11.397268-.3 11.058254H.3ZM.343195 12.014839C.364763 12.253489 .480251 12.473796 .664253 12.627295L.279898 13.088025C-.026297 12.832588-.218478 12.465978-.254369 12.068844L.343195 12.014839ZM.664253 12.627295C.848255 12.780796 1.085698 12.854915 1.324347 12.833346L1.378352 13.430911C.981218 13.466803 .586092 13.343462 .279898 13.088025L.664253 12.627295ZM1.324347 12.833346C1.562996 12.811779 1.783303 12.696291 1.936803 12.512289L2.397533 12.896644C2.142096 13.202838 1.775486 13.39502 1.378352 13.430911L1.324347 12.833346ZM1.936803 12.512289C2.090304 12.328287 2.164422 12.090844 2.142854 11.852195L2.740419 11.79819C2.77631 12.195324 2.65297 12.590449 2.397533 12.896644L1.936803 12.512289ZM2.142869 11.852353C2.11893 11.589031 2.106973 11.32396 2.106973 11.057171H2.706973C2.706973 11.306006 2.718125 11.552951 2.740405 11.798032L2.142869 11.852353ZM2.106973 11.057668C2.104267 9.424544 2.562402 7.823795 3.428725 6.439389L3.937348 6.757671C3.130916 8.04637 2.704453 9.536453 2.706972 11.056674L2.106973 11.057668ZM3.428637 6.43953C4.132981 5.312582 5.084084 4.360329 6.210179 3.654623L6.528794 4.163038C5.479694 4.820492 4.593621 5.707636 3.937436 6.75753L3.428637 6.43953ZM6.210662 3.654322C7.599946 2.787352 9.205167 2.328844 10.842769 2.33123L10.841895 2.931231C9.316901 2.929008 7.822062 3.355986 6.528311 4.16334L6.210662 3.654322ZM10.842769 2.33123C12.480371 2.333616 14.08425 2.796799 15.471002 3.667814L15.151872 4.175905C13.860478 3.364784 12.366889 2.933453 10.841895 2.931231L10.842769 2.33123ZM15.471002 3.667814C16.857754 4.53883 17.971398 5.782516 18.684592 7.25666L18.144482 7.517967C17.48033 6.145191 16.443264 4.987024 15.151872 4.175905L15.471002 3.667814ZM18.684592 7.25666C19.397788 8.730803 19.681744 10.375897 19.503989 12.003825L18.907534 11.938698C19.073065 10.422713 18.808636 8.890742 18.144482 7.517967L18.684592 7.25666ZM19.503989 12.003825C19.326233 13.631754 18.693942 15.176802 17.679419 16.462294L17.20843 16.090584C18.153189 14.893488 18.742 13.454683 18.907534 11.938698L19.503989 12.003825ZM17.679419 16.462294C16.664896 17.747786 15.309094 18.72183 13.767048 19.273047L13.565088 18.708058C15.001098 18.194746 16.263669 17.28768 17.20843 16.090584L17.679419 16.462294ZM13.767048 19.273047C12.225002 19.824263 10.558959 19.930399 8.959431 19.579319L9.088063 18.99327C10.5776 19.32021 12.12908 19.22137 13.565088 18.708058L13.767048 19.273047ZM8.959431 19.579319C7.359903 19.228241 5.891458 18.434117 4.722012 17.287756L5.142026 16.859284C6.231056 17.926815 7.598525 18.666333 9.088063 18.99327L8.959431 19.579319ZM4.932019 16.77352H6.616467V17.37352H4.932019V16.77352ZM6.61798 16.773524C6.849221 16.77469 7.072108 16.687148 7.240743 16.528922L7.651288 16.966475C7.370662 17.229779 6.999758 17.375458 6.614953 17.373517L6.61798 16.773524ZM7.240743 16.528922C7.409379 16.370694 7.510926 16.15383 7.524474 15.922983L8.123444 15.958138C8.100898 16.342289 7.931914 16.70317 7.651288 16.966475L7.240743 16.528922ZM7.524474 15.922983C7.538023 15.692138 7.462541 15.464884 7.313572 15.288016L7.772483 14.901492C8.020381 15.195815 8.145989 15.573988 8.123444 15.958138L7.524474 15.922983ZM7.313572 15.288016C7.164604 15.111149 6.953488 14.998135 6.723699 14.972243L6.790878 14.376017C7.173269 14.419102 7.524585 14.607168 7.772483 14.901492L7.313572 15.288016ZM6.741158 14.973696 6.600336 14.966113 6.632596 14.366982 6.773419 14.374563 6.741158 14.973696ZM6.616467 14.966547H1.801438V14.366547H6.616467V14.966547ZM1.802379 14.966545C1.581414 14.967239 1.368364 15.048884 1.203527 15.196039L.80395 14.748447C1.078255 14.503567 1.432791 14.367702 1.800497 14.366549L1.802379 14.966545ZM1.203527 15.196039C1.038689 15.343194 .933494 15.545654 .907838 15.765126L.311896 15.695462C.35459 15.33024 .529645 14.993327 .80395 14.748447L1.203527 15.196039ZM.909433 15.746425 .901851 15.887247 .302719 15.854986 .310301 15.714164 .909433 15.746425ZM.902285 15.871117V20.682896H.302285V15.871117H.902285ZM.902281 20.68441C.901114 20.91565 .988657 21.138535 1.146883 21.30717L.70933 21.717717C.446027 21.43709 .300347 21.066187 .302289 20.681382L.902281 20.68441ZM1.146883 21.30717C1.30511 21.475808 1.521974 21.577355 1.752821 21.590903L1.717667 22.18987C1.333516 22.167326 .972634 21.99834 .70933 21.717717L1.146883 21.30717ZM1.752821 21.590903C1.983667 21.60445 2.210921 21.528969 2.387788 21.380002L2.774312 21.838912C2.479989 22.08681 2.101817 22.212418 1.717667 22.18987L1.752821 21.590903ZM2.387788 21.380002C2.564655 21.231032 2.67767 21.019917 2.703561 20.790127L3.299788 20.857308C3.256703 21.239699 3.068635 21.591013 2.774312 21.838912L2.387788 21.380002ZM2.702108 20.807587 2.709691 20.666766 3.308823 20.699027 3.301241 20.839848 2.702108 20.807587ZM2.709257 20.682896V18.546734H3.309257V20.682896H2.709257ZM3.226196 18.33952C4.208245 19.36766 5.388659 20.185894 6.696025 20.744719L6.460199 21.29643C5.07821 20.70571 3.830421 19.840773 2.792318 18.753949L3.226196 18.33952ZM6.696025 20.744719C8.003391 21.303545 9.410535 21.591347 10.832326 21.590714L10.832594 22.190714C9.329648 22.191384 7.842187 21.887154 6.460199 21.29643L6.696025 20.744719ZM9.930054 16.77677C10.075783 16.77674 10.216578 16.723973 10.32643 16.628216L10.72068 17.08051C10.501597 17.271477 10.220808 17.376709 9.930178 17.37677L9.930054 16.77677ZM10.32643 16.628216C10.436284 16.532462 10.507773 16.400185 10.527693 16.255825L11.122062 16.33784C11.082335 16.625742 10.939762 16.889542 10.72068 17.08051L10.32643 16.628216ZM10.525441 16.278447 10.533024 16.154957 11.131896 16.191729 11.124313 16.31522 10.525441 16.278447ZM10.53246 16.173342V11.058254H11.13246V16.173342H10.53246ZM10.83246 10.758254H13.540575V11.358254H10.83246V10.758254ZM13.542508 10.758261C13.695842 10.759249 13.843779 10.701722 13.956164 10.597408L14.364344 11.037169C14.140011 11.245392 13.844711 11.360221 13.538641 11.358248L13.542508 10.758261ZM13.956164 10.597408C14.06855 10.493093 14.136922 10.349843 14.147342 10.196861L14.745955 10.237636C14.725155 10.543004 14.588677 10.828945 14.364344 11.037169L13.956164 10.597408ZM14.147342 10.196861C14.157763 10.043879 14.109447 9.892682 14.012245 9.774093L14.476285 9.393742C14.670313 9.630463 14.766754 9.932268 14.745955 10.237636L14.147342 10.196861ZM14.012245 9.774093C13.915042 9.655502 13.77627 9.578446 13.624219 9.558634L13.701744 8.963664C14.005255 9.003211 14.282258 9.157022 14.476285 9.393742L14.012245 9.774093ZM13.641797 9.5604 13.51939 9.551735 13.561759 8.953233 13.684166 8.961898 13.641797 9.5604ZM13.540575 9.552484H9.930116V8.952483H13.540575V9.552484ZM9.930178 9.552484C9.784449 9.552513 9.643654 9.60528 9.533801 9.701035L9.139552 9.248744C9.358634 9.057776 9.639424 8.952543 9.930054 8.952483L9.930178 9.552484ZM9.533801 9.701035C9.423948 9.796791 9.352458 9.929068 9.332539 10.073428L8.738171 9.991414C8.777897 9.703511 8.920469 9.439712 9.139552 9.248744L9.533801 9.701035ZM9.334605 10.053605 9.32594 10.176012 8.727438 10.133643 8.736103 10.011236 9.334605 10.053605ZM9.326689 10.154828V16.173342H8.726689V10.154828H9.326689ZM9.326689 16.173342C9.326689 16.333382 9.390265 16.486865 9.503429 16.600029L9.079165 17.024294C8.853478 16.798607 8.726689 16.492512 8.726689 16.173342H9.326689ZM9.503429 16.600029C9.616594 16.713194 9.770078 16.77677 9.930116 16.77677V17.37677C9.610947 17.37677 9.304851 17.249979 9.079165 17.024294L9.503429 16.600029Z"
            fill="#e8eaf1" transform="matrix(1,0,0,-1,0,21.892457)" />
    </g>
</svg>
