<svg fill="none" height="32" viewBox="0 0 33 32" width="33" xmlns="http://www.w3.org/2000/svg">
    <path
        d="M21.675 26.1234H10.452C9.13905 26.122 7.88026 25.5999 6.95187 24.6715C6.02348 23.7431 5.50132 22.4843 5.5 21.1714L5.5 14.2284C5.5022 13.4668 5.67904 12.7159 6.01692 12.0333C6.35481 11.3508 6.84472 10.7549 7.449 10.2914L13.06 6.01137C13.9236 5.35523 14.9784 5 16.063 5C17.1476 5 18.2024 5.35523 19.066 6.01137L20.85 7.37037V6.31737C20.85 6.09843 20.937 5.88846 21.0918 5.73365C21.2466 5.57884 21.4566 5.49187 21.6755 5.49187C21.8944 5.49187 22.1044 5.57884 22.2592 5.73365C22.414 5.88846 22.501 6.09843 22.501 6.31737V9.03737C22.501 9.1911 22.458 9.34175 22.3769 9.47235C22.2958 9.60295 22.1798 9.70829 22.042 9.7765C21.9043 9.8447 21.7502 9.87306 21.5972 9.85838C21.4442 9.84369 21.2983 9.78654 21.176 9.69337L18.065 7.32337C17.4896 6.88685 16.7872 6.65056 16.065 6.65056C15.3428 6.65056 14.6404 6.88685 14.065 7.32337L8.45 11.6034C8.04698 11.9123 7.72022 12.3097 7.49484 12.7647C7.26947 13.2198 7.1515 13.7205 7.15 14.2284V21.1714C7.15 22.0466 7.49768 22.886 8.11655 23.5048C8.73542 24.1237 9.57479 24.4714 10.45 24.4714H21.675C22.5502 24.4714 23.3896 24.1237 24.0085 23.5048C24.6273 22.886 24.975 22.0466 24.975 21.1714V14.2284C24.9766 13.7204 24.8617 13.2188 24.6391 12.7621C24.4165 12.3055 24.0922 11.906 23.691 11.5944C23.5221 11.46 23.4125 11.2648 23.3858 11.0506C23.3592 10.8364 23.4175 10.6202 23.5484 10.4486C23.6792 10.2769 23.8722 10.1633 24.0858 10.1323C24.2994 10.1012 24.5167 10.1551 24.691 10.2824C25.2936 10.7485 25.7813 11.3465 26.1166 12.0306C26.4519 12.7147 26.6258 13.4665 26.625 14.2284V21.1714C26.6237 22.484 26.1018 23.7425 25.1738 24.6708C24.2459 25.5991 22.9876 26.1215 21.675 26.1234ZM14.413 14.5284C14.2089 14.5282 14.0094 14.5885 13.8396 14.7017C13.6698 14.8149 13.5374 14.9758 13.459 15.1643C13.3807 15.3527 13.36 15.5602 13.3996 15.7604C13.4391 15.9606 13.5371 16.1445 13.6812 16.289C13.8253 16.4335 14.009 16.5321 14.2091 16.5722C14.4092 16.6123 14.6166 16.5923 14.8053 16.5145C14.994 16.4367 15.1554 16.3047 15.269 16.1353C15.3827 15.9658 15.4436 15.7664 15.444 15.5624C15.4443 15.4268 15.4178 15.2924 15.3661 15.1671C15.3144 15.0417 15.2385 14.9277 15.1428 14.8317C15.047 14.7357 14.9333 14.6595 14.8081 14.6074C14.6829 14.5554 14.5486 14.5285 14.413 14.5284ZM18.745 15.5624C18.7367 15.8304 18.6243 16.0846 18.4318 16.2713C18.2393 16.4579 17.9816 16.5622 17.7135 16.5622C17.4454 16.5622 17.1877 16.4579 16.9952 16.2713C16.8027 16.0846 16.6903 15.8304 16.682 15.5624C16.6903 15.2944 16.8027 15.0401 16.9952 14.8535C17.1877 14.6669 17.4454 14.5625 17.7135 14.5625C17.9816 14.5625 18.2393 14.6669 18.4318 14.8535C18.6243 15.0401 18.7367 15.2944 18.745 15.5624ZM15.445 18.8624C15.4367 19.1304 15.3243 19.3846 15.1318 19.5713C14.9393 19.7579 14.6816 19.8622 14.4135 19.8622C14.1454 19.8622 13.8877 19.7579 13.6952 19.5713C13.5027 19.3846 13.3903 19.1304 13.382 18.8624C13.3937 18.5968 13.5074 18.346 13.6995 18.1622C13.8916 17.9784 14.1472 17.8758 14.413 17.8758C14.6788 17.8758 14.9344 17.9784 15.1265 18.1622C15.3186 18.346 15.4333 18.5968 15.445 18.8624ZM18.745 18.8624C18.7367 19.1304 18.6243 19.3846 18.4318 19.5713C18.2393 19.7579 17.9816 19.8622 17.7135 19.8622C17.4454 19.8622 17.1877 19.7579 16.9952 19.5713C16.8027 19.3846 16.6903 19.1304 16.682 18.8624C16.6903 18.5944 16.8027 18.3401 16.9952 18.1535C17.1877 17.9669 17.4454 17.8625 17.7135 17.8625C17.9816 17.8625 18.2393 17.9669 18.4318 18.1535C18.6243 18.3401 18.7367 18.5944 18.745 18.8624Z"
        fill="#3F4047" />
</svg>
