<svg width="18" height="18" viewBox="0 0 18 18" fill="none" xmlns="http://www.w3.org/2000/svg">
<path d="M13.8508 12.62L14.1433 14.9897C14.2183 15.6122 13.5508 16.0471 13.0184 15.7247L9.87615 13.8573C9.53118 13.8573 9.19372 13.8349 8.86375 13.7899C9.4187 13.1374 9.74866 12.3125 9.74866 11.42C9.74866 9.29022 7.90382 7.56541 5.62402 7.56541C4.7541 7.56541 3.95167 7.81287 3.28423 8.24783C3.26173 8.06034 3.25422 7.87285 3.25422 7.67787C3.25422 4.26567 6.21647 1.49841 9.87615 1.49841C13.5358 1.49841 16.4981 4.26567 16.4981 7.67787C16.4981 9.70269 15.4557 11.4951 13.8508 12.62Z" stroke="#3F4047" stroke-width="1.1249" stroke-linecap="round" stroke-linejoin="round"/>
<path d="M9.74928 11.42C9.74928 12.3124 9.41932 13.1374 8.86437 13.7898C8.12193 14.6897 6.94453 15.2672 5.62464 15.2672L3.66731 16.4296C3.33734 16.632 2.91737 16.3546 2.96237 15.9721L3.14985 14.4948C2.14494 13.7973 1.5 12.6799 1.5 11.42C1.5 10.1001 2.20494 8.93773 3.28485 8.24779C3.95229 7.81283 4.75472 7.56537 5.62464 7.56537C7.90444 7.56537 9.74928 9.29018 9.74928 11.42Z" stroke="#3F4047" stroke-width="1.1249" stroke-linecap="round" stroke-linejoin="round"/>
</svg>
